<svg width="58" height="57" viewBox="0 0 58 57" fill="none" xmlns="http://www.w3.org/2000/svg">
<path d="M8 14H19.25C21.2391 14 23.1468 14.8077 24.5533 16.2455C25.9598 17.6833 26.75 19.6333 26.75 21.6667V48.5C26.75 46.975 26.1574 45.5125 25.1025 44.4341C24.0476 43.3558 22.6168 42.75 21.125 42.75H8V14Z" stroke="white" stroke-width="2" stroke-linecap="round" stroke-linejoin="round"/>
<path d="M45.5 14H34.25C32.2609 14 30.3532 14.8077 28.9467 16.2455C27.5402 17.6833 26.75 19.6333 26.75 21.6667V48.5C26.75 46.975 27.3426 45.5125 28.3975 44.4341C29.4524 43.3558 30.8832 42.75 32.375 42.75H45.5V14Z" stroke="white" stroke-width="2" stroke-linecap="round" stroke-linejoin="round"/>
</svg>
