<svg width="45" height="46" viewBox="0 0 45 46" fill="none" xmlns="http://www.w3.org/2000/svg">
<path d="M3.75 5.75H15C16.9891 5.75 18.8968 6.55774 20.3033 7.99551C21.7098 9.43329 22.5 11.3833 22.5 13.4167V40.25C22.5 38.725 21.9074 37.2625 20.8525 36.1841C19.7976 35.1058 18.3668 34.5 16.875 34.5H3.75V5.75Z" stroke="black" stroke-width="2" stroke-linecap="round" stroke-linejoin="round"/>
<path d="M41.25 5.75H30C28.0109 5.75 26.1032 6.55774 24.6967 7.99551C23.2902 9.43329 22.5 11.3833 22.5 13.4167V40.25C22.5 38.725 23.0926 37.2625 24.1475 36.1841C25.2024 35.1058 26.6332 34.5 28.125 34.5H41.25V5.75Z" stroke="black" stroke-width="2" stroke-linecap="round" stroke-linejoin="round"/>
</svg>
