<svg width="40" height="40" viewBox="0 0 40 40" fill="none" xmlns="http://www.w3.org/2000/svg">
<path d="M15.0002 31.6667C6.66683 34.1667 6.66683 27.5001 3.3335 26.6667M26.6668 36.6667V30.2167C26.7293 29.422 26.622 28.6231 26.3519 27.873C26.0817 27.123 25.655 26.4391 25.1002 25.8667C30.3335 25.2834 35.8335 23.3001 35.8335 14.2001C35.8331 11.8731 34.938 9.63539 33.3335 7.95006C34.0933 5.91424 34.0395 3.66397 33.1835 1.66673C33.1835 1.66673 31.2168 1.08339 26.6668 4.13339C22.8468 3.0981 18.8201 3.0981 15.0002 4.13339C10.4502 1.08339 8.4835 1.66673 8.4835 1.66673C7.62746 3.66397 7.57374 5.91424 8.3335 7.95006C6.71704 9.64789 5.82103 11.9058 5.8335 14.2501C5.8335 23.2834 11.3335 25.2667 16.5668 25.9167C16.0185 26.4833 15.5956 27.1591 15.3257 27.8999C15.0558 28.6408 14.9448 29.4302 15.0002 30.2167V36.6667" stroke="black" stroke-width="2" stroke-linecap="round" stroke-linejoin="round"/>
</svg>
