<svg width="58" height="57" viewBox="0 0 58 57" fill="none" xmlns="http://www.w3.org/2000/svg">
<path d="M24.6667 42.0447C16.3333 44.5447 16.3333 37.878 13 37.0447M36.3333 47.0447V40.5947C36.3959 39.7999 36.2885 39.001 36.0184 38.251C35.7482 37.501 35.3215 36.817 34.7667 36.2447C40 35.6613 45.5 33.678 45.5 24.578C45.4996 22.251 44.6045 20.0133 43 18.328C43.7598 16.2922 43.706 14.0419 42.85 12.0447C42.85 12.0447 40.8833 11.4613 36.3333 14.5113C32.5133 13.476 28.4867 13.476 24.6667 14.5113C20.1167 11.4613 18.15 12.0447 18.15 12.0447C17.294 14.0419 17.2402 16.2922 18 18.328C16.3835 20.0258 15.4875 22.2838 15.5 24.628C15.5 33.6613 21 35.6447 26.2333 36.2947C25.685 36.8613 25.2621 37.537 24.9922 38.2779C24.7223 39.0187 24.6113 39.8081 24.6667 40.5947V47.0447" stroke="white" stroke-width="2" stroke-linecap="round" stroke-linejoin="round"/>
</svg>
