<svg width="38" height="39" viewBox="0 0 38 39" fill="none" xmlns="http://www.w3.org/2000/svg">
<path d="M33.2499 3.25L30.0833 6.5M30.0833 6.5L34.8333 11.375L29.2916 17.0625L24.5416 12.1875M30.0833 6.5L24.5416 12.1875M18.0341 18.8662C18.8517 19.6941 19.5016 20.6798 19.9464 21.7665C20.3912 22.8533 20.6222 24.0196 20.6261 25.1983C20.6299 26.377 20.4065 27.5449 19.9688 28.6346C19.5311 29.7244 18.8876 30.7145 18.0755 31.548C17.2634 32.3815 16.2987 33.0419 15.2368 33.4911C14.175 33.9404 13.0371 34.1696 11.8886 34.1657C10.7401 34.1617 9.60372 33.9246 8.54487 33.4681C7.48601 33.0116 6.5256 32.3446 5.71895 31.5055C4.13265 29.8199 3.2549 27.5622 3.27474 25.2189C3.29458 22.8755 4.21043 20.6338 5.82503 18.9767C7.43962 17.3197 9.62378 16.3797 11.9071 16.3594C14.1904 16.339 16.3901 17.2398 18.0325 18.8679L18.0341 18.8662ZM18.0341 18.8662L24.5416 12.1875" stroke="black" stroke-width="2" stroke-linecap="round" stroke-linejoin="round"/>
</svg>
