<svg width="772" height="380" viewBox="0 0 772 380" fill="none" xmlns="http://www.w3.org/2000/svg">
<ellipse cx="620.5" cy="126.5" rx="55.5" ry="52.5" fill="#7A4500"/>
<ellipse cx="536" cy="156.5" rx="59" ry="54.5" fill="#7A4500"/>
<ellipse cx="558.5" cy="104.5" rx="55.5" ry="52.5" fill="#7A4500"/>
<ellipse cx="620.5" cy="166" rx="55.5" ry="52" fill="#7A4500"/>
<ellipse cx="59" cy="215.5" rx="59" ry="54.5" fill="#7A4500"/>
<ellipse cx="81.5" cy="163.5" rx="55.5" ry="52.5" fill="#7A4500"/>
<ellipse cx="219.5" cy="145" rx="56.5" ry="52" fill="#7A4500"/>
<ellipse cx="239.5" cy="225" rx="55.5" ry="52" fill="#7A4500"/>
<ellipse cx="143.5" cy="225" rx="55.5" ry="52" fill="#7A4500"/>
<ellipse cx="143.5" cy="185.5" rx="55.5" ry="52.5" fill="#7A4500"/>
<ellipse cx="151.5" cy="111.5" rx="55.5" ry="52.5" fill="#7A4500"/>
<ellipse cx="278" cy="278" rx="95" ry="84" fill="#EAF0CE"/>
<ellipse cx="314" cy="197.5" rx="90" ry="80.5" fill="#EAF0CE"/>
<ellipse cx="536" cy="169.5" rx="90" ry="80.5" fill="#EAF0CE"/>
<ellipse cx="567" cy="292.5" rx="90" ry="80.5" fill="#EAF0CE"/>
<ellipse cx="414" cy="292.5" rx="90" ry="80.5" fill="#EAF0CE"/>
<ellipse cx="414" cy="231.5" rx="90" ry="80.5" fill="#EAF0CE"/>
<ellipse cx="426" cy="117.5" rx="90" ry="80.5" fill="#EAF0CE"/>
<path d="M273.564 239.052L252.15 140.78H269.082L288.504 233.906C289.002 236.396 289.832 237.558 291.16 237.558C292.488 237.558 293.484 236.562 293.982 233.906L312.408 154.724C314.566 144.432 320.21 139.784 327.846 139.784C335.648 139.784 341.126 144.266 343.45 154.558L362.54 233.906C363.204 236.23 363.868 237.392 365.362 237.392C366.856 237.392 367.52 236.23 367.852 233.906L385.78 140.78H402.712L382.958 238.056C380.966 247.85 375.322 253.992 366.192 253.992C357.394 253.992 351.252 248.68 348.762 238.554L329.506 158.21C329.174 156.716 328.676 156.052 327.846 156.052C327.182 156.052 326.518 156.716 326.186 158.21L307.428 239.55C305.27 248.846 298.796 254.158 290.828 254.158C282.196 254.158 275.722 248.846 273.564 239.052ZM452.614 253.826C427.88 253.826 409.454 235.898 409.454 210.832C409.454 187.426 426.22 168.336 450.622 168.336C475.19 168.336 490.462 186.098 490.462 208.84V215.48H425.39C427.216 229.424 437.84 239.218 452.448 239.218C462.408 239.218 471.372 234.902 476.186 225.938L488.802 232.412C481.664 246.356 468.55 253.826 452.614 253.826ZM426.054 204.856H474.028C473.364 191.908 463.902 183.11 450.456 183.11C436.678 183.11 427.714 192.738 426.054 204.856ZM553.409 253.992C528.841 253.992 510.083 235.566 510.083 211.496V133.31H526.517V180.786C533.157 173.482 543.117 168.668 554.073 168.668C578.807 168.668 596.569 186.762 596.569 211.496C596.569 234.902 577.977 253.992 553.409 253.992ZM553.409 238.554C568.515 238.554 580.135 226.27 580.135 211.33C580.135 196.556 568.515 184.272 553.409 184.272C538.137 184.272 526.517 196.556 526.517 211.33C526.517 226.27 538.137 238.554 553.409 238.554Z" fill="black"/>
<path d="M418.314 331.254C405.432 331.254 394.602 325.44 390.042 314.952L399.846 310.164C402.81 316.776 409.308 320.31 418.314 320.31C427.206 320.31 434.046 316.092 434.046 308.568C434.046 300.132 426.294 298.65 417.288 296.94C405.774 294.66 391.524 290.898 391.524 274.71C391.524 262.056 403.038 252.48 417.516 252.48C429.144 252.48 439.518 257.952 444.078 268.44L434.388 273.456C431.31 267.186 425.496 263.31 417.06 263.31C409.308 263.31 403.038 267.87 403.038 274.368C403.038 282.576 411.132 284.4 420.366 286.224C431.766 288.504 445.674 292.266 445.674 308.454C445.674 321.906 433.704 331.254 418.314 331.254ZM485.999 331.254C469.013 331.254 456.359 318.942 456.359 301.728C456.359 285.654 467.873 272.544 484.631 272.544C501.503 272.544 511.991 284.742 511.991 300.36V304.92H467.303C468.557 314.496 475.853 321.222 485.885 321.222C492.725 321.222 498.881 318.258 502.187 312.102L510.851 316.548C505.949 326.124 496.943 331.254 485.999 331.254ZM467.759 297.624H500.705C500.249 288.732 493.751 282.69 484.517 282.69C475.055 282.69 468.899 289.302 467.759 297.624ZM536.751 330H525.465V296.712C525.465 283.146 533.217 273 547.809 273C551.343 273 554.991 273.684 557.841 275.052V286.224C555.105 284.628 551.913 283.83 548.835 283.83C541.311 283.83 536.751 288.96 536.751 297.168V330ZM581.722 322.704L563.71 274.14H575.794L592.21 319.626C592.324 320.196 592.78 320.766 593.464 320.766C594.262 320.766 594.718 320.196 594.832 319.626L611.248 274.14H623.218L605.092 322.704C602.926 328.518 598.936 331.482 593.464 331.482C588.22 331.482 583.888 328.518 581.722 322.704Z" fill="black"/>
<ellipse cx="696.5" cy="86" rx="56.5" ry="52" fill="#7A4500"/>
<ellipse cx="716.5" cy="166" rx="55.5" ry="52" fill="#7A4500"/>
<ellipse cx="628.5" cy="52.5" rx="55.5" ry="52.5" fill="#7A4500"/>
</svg>
