<svg width="58" height="58" viewBox="0 0 58 58" fill="none" xmlns="http://www.w3.org/2000/svg">
<circle cx="29" cy="29" r="20.5" stroke="white" stroke-width="3"/>
<path d="M42 44V40.6667C42 38.8986 41.2888 37.2029 40.023 35.9526C38.7571 34.7024 37.0402 34 35.25 34H21.75C19.9598 34 18.2429 34.7024 16.977 35.9526C15.7112 37.2029 15 38.8986 15 40.6667V44" stroke="white" stroke-width="2" stroke-linecap="round" stroke-linejoin="round"/>
<path d="M28.5 28C32.0899 28 35 24.866 35 21C35 17.134 32.0899 14 28.5 14C24.9101 14 22 17.134 22 21C22 24.866 24.9101 28 28.5 28Z" stroke="white" stroke-width="2" stroke-linecap="round" stroke-linejoin="round"/>
</svg>
