<svg width="58" height="58" viewBox="0 0 58 58" fill="none" xmlns="http://www.w3.org/2000/svg">
<circle cx="28.5" cy="30.5" r="22" fill="#D9D9D9" stroke="black" stroke-width="3"/>
<path d="M42 46.5V43C42 41.1435 41.2625 39.363 39.9497 38.0503C38.637 36.7375 36.8565 36 35 36H21C19.1435 36 17.363 36.7375 16.0503 38.0503C14.7375 39.363 14 41.1435 14 43V46.5" stroke="black" stroke-width="2" stroke-linecap="round" stroke-linejoin="round"/>
<path d="M28 29C31.866 29 35 25.866 35 22C35 18.134 31.866 15 28 15C24.134 15 21 18.134 21 22C21 25.866 24.134 29 28 29Z" stroke="black" stroke-width="2" stroke-linecap="round" stroke-linejoin="round"/>
</svg>
